<svg xmlns="http://www.w3.org/2000/svg" width="108" height="108" viewBox="0 0 108 108">
  <g transform="translate(54, 54)">
    
    <path d="M-25,-25 L5,-35 L15,-5 L-15,5 Z" fill="#00D2C8" /> <path d="M25,-25 L35,5 L5,15 L-5,-15 Z" fill="#0082FF" /> <path d="M25,25 L-5,35 L-15,5 L15,-5 Z" fill="#32D25A" /> <path d="M-25,25 L-35,-5 L-5,-15 L5,15 Z" fill="#8232FF" /> <path d="M-14,-14 L14,-14 L14,14 L-14,14 Z" fill="#16162A" />

    <g fill="none" stroke="#FFFFFF" stroke-width="1.5" stroke-linecap="round" stroke-linejoin="round">
      <path d="M-8,-4 L-11,0 L-8,4" /> <path d="M8,-4 L11,0 L8,4" />     <path d="M2,-6 L-2,6" />          </g>

    <g fill="none" stroke="#FFFFFF" stroke-width="1.2" stroke-linecap="round" stroke-linejoin="round">
      <path d="M-7,8 L-7,14 M-7,8 L-4,11 L-1,8 L-1,14" />
      <path d="M4,9 A2.5,2.5 0 1,0 4,13" />
      <path d="M6,13.5 Q8.5,13.5 8.5,12 Q8.5,11 6,11 Q3.5,11 3.5,10 Q3.5,8.5 6,8.5" />
    </g>
  </g>
</svg>